<?xml version="1.0" encoding="UTF-8"?>
<svg version="1.1" xmlns="http://www.w3.org/2000/svg" width="96" height="96">
<path d="M0 0 C2.81972931 2.36493426 2.97850831 3.8280665 3.4375 7.5 C3 11 3 11 1.125 13.4375 C-1 15 -1 15 -3 15 C-3 16.65 -3 18.3 -3 20 C-1.72125 19.96519531 -0.4425 19.93039063 0.875 19.89453125 C2.58332009 19.86637213 4.29165452 19.83907426 6 19.8125 C6.83917969 19.78736328 7.67835937 19.76222656 8.54296875 19.73632812 C14.65243127 19.66528786 20.79948459 20.09657885 25.56225586 24.41723633 C29.3556744 28.78306847 30.12874247 32.0568902 30.0625 37.6875 C30.05347656 38.68136719 30.04445313 39.67523438 30.03515625 40.69921875 C30.02355469 41.45847656 30.01195313 42.21773437 30 43 C33.3 43 36.6 43 40 43 C40 50.92 40 58.84 40 67 C36.7 67 33.4 67 30 67 C30 72.94 30 78.88 30 85 C6.9 85 -16.2 85 -40 85 C-40 79.06 -40 73.12 -40 67 C-43.3 67 -46.6 67 -50 67 C-50 59.08 -50 51.16 -50 43 C-46.7 43 -43.4 43 -40 43 C-40.03480469 42.27554688 -40.06960937 41.55109375 -40.10546875 40.8046875 C-40.38596258 30.78705055 -40.38596258 30.78705055 -37 26 C-31.56277783 20.70972978 -26.03850442 19.76791295 -18.71875 19.82421875 C-17.8628125 19.84097656 -17.006875 19.85773437 -16.125 19.875 C-15.24585938 19.88402344 -14.36671875 19.89304687 -13.4609375 19.90234375 C-11.3071729 19.92575423 -9.15354986 19.9616199 -7 20 C-7 18.35 -7 16.7 -7 15 C-7.804375 14.71125 -8.60875 14.4225 -9.4375 14.125 C-12 13 -12 13 -13 11 C-13.45723173 4.8273717 -13.45723173 4.8273717 -11.6875 1.625 C-8.08559885 -1.8434974 -4.55940718 -1.05843381 0 0 Z M-23 41 C-24.09616096 43.31194193 -24.09616096 43.31194193 -24 46 C-22.50397498 48.91170257 -22.50397498 48.91170257 -20 51 C-17.5 51.83333333 -17.5 51.83333333 -15 51 C-12.40878096 48.9901643 -12.40878096 48.9901643 -11 46 C-11.62036318 42.71895528 -11.62036318 42.71895528 -13 40 C-18.28199593 38.80011955 -18.28199593 38.80011955 -23 41 Z M2 41 C0.90383904 43.31194193 0.90383904 43.31194193 1 46 C2.49602502 48.91170257 2.49602502 48.91170257 5 51 C7.5 51.83333333 7.5 51.83333333 10 51 C12.59121904 48.9901643 12.59121904 48.9901643 14 46 C13.37963682 42.71895528 13.37963682 42.71895528 12 40 C6.71800407 38.80011955 6.71800407 38.80011955 2 41 Z M-20 67 C-20 71.29 -20 75.58 -20 80 C-17.69 80 -15.38 80 -13 80 C-13 75.71 -13 71.42 -13 67 C-15.31 67 -17.62 67 -20 67 Z M-8 67 C-8 71.29 -8 75.58 -8 80 C-6.02 80 -4.04 80 -2 80 C-2 75.71 -2 71.42 -2 67 C-3.98 67 -5.96 67 -8 67 Z M3 67 C3 71.29 3 75.58 3 80 C5.31 80 7.62 80 10 80 C10 75.71 10 71.42 10 67 C7.69 67 5.38 67 3 67 Z " fill="#000000" transform="translate(53,6)"/>
</svg>
